<mxfile host="Electron" modified="2024-09-04T10:22:23.184Z" agent="Mozilla/5.0 (Windows NT 10.0; Win64; x64) AppleWebKit/537.36 (KHTML, like Gecko) draw.io/21.7.5 Chrome/114.0.5735.289 Electron/25.8.1 Safari/537.36" etag="R7b7HoDyNbOvXykoXY_J" version="21.7.5" type="device">
  <diagram name="Seite-1" id="xOZ4wQq5kB3XGfZdF3wu">
    <mxGraphModel dx="1050" dy="621" grid="1" gridSize="10" guides="1" tooltips="1" connect="1" arrows="1" fold="1" page="1" pageScale="1" pageWidth="827" pageHeight="1169" math="0" shadow="0">
      <root>
        <mxCell id="0" />
        <mxCell id="1" parent="0" />
        <mxCell id="caMaBBlZCSRRnsg9Vutc-1" value="" style="rounded=0;whiteSpace=wrap;html=1;" vertex="1" parent="1">
          <mxGeometry x="320" y="80" width="280" height="280" as="geometry" />
        </mxCell>
        <mxCell id="caMaBBlZCSRRnsg9Vutc-2" value="" style="endArrow=none;html=1;rounded=0;entryX=0.5;entryY=0;entryDx=0;entryDy=0;exitX=0.5;exitY=1;exitDx=0;exitDy=0;" edge="1" parent="1" source="caMaBBlZCSRRnsg9Vutc-1" target="caMaBBlZCSRRnsg9Vutc-1">
          <mxGeometry width="50" height="50" relative="1" as="geometry">
            <mxPoint x="500" y="200" as="sourcePoint" />
            <mxPoint x="550" y="150" as="targetPoint" />
          </mxGeometry>
        </mxCell>
        <mxCell id="caMaBBlZCSRRnsg9Vutc-3" value="" style="endArrow=none;html=1;rounded=0;entryX=1;entryY=0.5;entryDx=0;entryDy=0;exitX=0;exitY=0.5;exitDx=0;exitDy=0;" edge="1" parent="1" source="caMaBBlZCSRRnsg9Vutc-1" target="caMaBBlZCSRRnsg9Vutc-1">
          <mxGeometry width="50" height="50" relative="1" as="geometry">
            <mxPoint x="390" y="340" as="sourcePoint" />
            <mxPoint x="440" y="290" as="targetPoint" />
          </mxGeometry>
        </mxCell>
        <mxCell id="caMaBBlZCSRRnsg9Vutc-4" value="&lt;font style=&quot;font-size: 18px;&quot;&gt;AG&lt;/font&gt;" style="text;html=1;align=center;verticalAlign=middle;resizable=0;points=[];autosize=1;strokeColor=none;fillColor=none;" vertex="1" parent="1">
          <mxGeometry x="364" y="40" width="50" height="40" as="geometry" />
        </mxCell>
        <mxCell id="caMaBBlZCSRRnsg9Vutc-5" value="&lt;font style=&quot;font-size: 18px;&quot;&gt;AN&lt;/font&gt;" style="text;html=1;align=center;verticalAlign=middle;resizable=0;points=[];autosize=1;strokeColor=none;fillColor=none;" vertex="1" parent="1">
          <mxGeometry x="500" y="40" width="50" height="40" as="geometry" />
        </mxCell>
        <mxCell id="caMaBBlZCSRRnsg9Vutc-6" value="&lt;font style=&quot;font-size: 17px;&quot;&gt;AK&lt;/font&gt;" style="text;html=1;align=center;verticalAlign=middle;resizable=0;points=[];autosize=1;strokeColor=none;fillColor=none;" vertex="1" parent="1">
          <mxGeometry x="500" y="130" width="50" height="30" as="geometry" />
        </mxCell>
        <mxCell id="caMaBBlZCSRRnsg9Vutc-7" value="&lt;font style=&quot;font-size: 17px;&quot;&gt;WK&lt;/font&gt;" style="text;html=1;align=center;verticalAlign=middle;resizable=0;points=[];autosize=1;strokeColor=none;fillColor=none;" vertex="1" parent="1">
          <mxGeometry x="364" y="130" width="50" height="30" as="geometry" />
        </mxCell>
        <mxCell id="caMaBBlZCSRRnsg9Vutc-8" value="&lt;font style=&quot;font-size: 15px;&quot;&gt;Verpflichtend,&lt;br&gt;Gesetz&lt;/font&gt;" style="text;html=1;align=center;verticalAlign=middle;resizable=0;points=[];autosize=1;strokeColor=none;fillColor=none;" vertex="1" parent="1">
          <mxGeometry x="620" y="120" width="110" height="50" as="geometry" />
        </mxCell>
        <mxCell id="caMaBBlZCSRRnsg9Vutc-9" value="" style="endArrow=classic;html=1;rounded=0;entryX=0;entryY=1.2;entryDx=0;entryDy=0;entryPerimeter=0;" edge="1" parent="1" target="caMaBBlZCSRRnsg9Vutc-8">
          <mxGeometry width="50" height="50" relative="1" as="geometry">
            <mxPoint x="730" y="180" as="sourcePoint" />
            <mxPoint x="710" y="200" as="targetPoint" />
          </mxGeometry>
        </mxCell>
        <mxCell id="caMaBBlZCSRRnsg9Vutc-10" value="&lt;span style=&quot;font-size: 15px;&quot;&gt;freiwillige Vereine&lt;/span&gt;" style="text;html=1;align=center;verticalAlign=middle;resizable=0;points=[];autosize=1;strokeColor=none;fillColor=none;" vertex="1" parent="1">
          <mxGeometry x="605" y="270" width="140" height="30" as="geometry" />
        </mxCell>
        <mxCell id="caMaBBlZCSRRnsg9Vutc-11" value="" style="endArrow=classic;html=1;rounded=0;" edge="1" parent="1">
          <mxGeometry width="50" height="50" relative="1" as="geometry">
            <mxPoint x="730" y="320" as="sourcePoint" />
            <mxPoint x="620" y="320" as="targetPoint" />
          </mxGeometry>
        </mxCell>
        <mxCell id="caMaBBlZCSRRnsg9Vutc-12" value="&lt;font style=&quot;font-size: 18px;&quot;&gt;Ã–GB&lt;/font&gt;" style="text;html=1;align=center;verticalAlign=middle;resizable=0;points=[];autosize=1;strokeColor=none;fillColor=none;" vertex="1" parent="1">
          <mxGeometry x="470" y="230" width="60" height="40" as="geometry" />
        </mxCell>
        <mxCell id="caMaBBlZCSRRnsg9Vutc-13" value="&lt;font style=&quot;font-size: 18px;&quot;&gt;IV&lt;/font&gt;" style="text;html=1;align=center;verticalAlign=middle;resizable=0;points=[];autosize=1;strokeColor=none;fillColor=none;" vertex="1" parent="1">
          <mxGeometry x="340" y="230" width="40" height="40" as="geometry" />
        </mxCell>
        <mxCell id="caMaBBlZCSRRnsg9Vutc-14" value="&lt;span style=&quot;font-size: 15px;&quot;&gt;Gewerbeverein&lt;/span&gt;" style="text;html=1;align=center;verticalAlign=middle;resizable=0;points=[];autosize=1;strokeColor=none;fillColor=none;" vertex="1" parent="1">
          <mxGeometry x="324" y="300" width="130" height="30" as="geometry" />
        </mxCell>
        <mxCell id="caMaBBlZCSRRnsg9Vutc-15" value="&lt;span style=&quot;font-size: 15px;&quot;&gt;Gewerkschaft&lt;/span&gt;" style="text;html=1;align=center;verticalAlign=middle;resizable=0;points=[];autosize=1;strokeColor=none;fillColor=none;" vertex="1" parent="1">
          <mxGeometry x="470" y="300" width="120" height="30" as="geometry" />
        </mxCell>
        <mxCell id="caMaBBlZCSRRnsg9Vutc-16" value="" style="endArrow=classic;html=1;rounded=0;exitX=0.62;exitY=1.045;exitDx=0;exitDy=0;exitPerimeter=0;entryX=0.503;entryY=-0.06;entryDx=0;entryDy=0;entryPerimeter=0;" edge="1" parent="1" source="caMaBBlZCSRRnsg9Vutc-12" target="caMaBBlZCSRRnsg9Vutc-15">
          <mxGeometry width="50" height="50" relative="1" as="geometry">
            <mxPoint x="590" y="470" as="sourcePoint" />
            <mxPoint x="640" y="420" as="targetPoint" />
          </mxGeometry>
        </mxCell>
        <mxCell id="caMaBBlZCSRRnsg9Vutc-17" value="" style="endArrow=classic;html=1;rounded=0;exitX=0.62;exitY=1.045;exitDx=0;exitDy=0;exitPerimeter=0;" edge="1" parent="1">
          <mxGeometry width="50" height="50" relative="1" as="geometry">
            <mxPoint x="370" y="270" as="sourcePoint" />
            <mxPoint x="400" y="300" as="targetPoint" />
          </mxGeometry>
        </mxCell>
      </root>
    </mxGraphModel>
  </diagram>
</mxfile>
